<?xml version="1.0" encoding="UTF-8" standalone="no"?>
<!-- Created with Inkscape (http://www.inkscape.org/) -->

<svg
   width="75.66082mm"
   height="103.42289mm"
   viewBox="0 0 75.66082 103.42289"
   version="1.1"
   id="svg1"
   xml:space="preserve"
   inkscape:export-filename="loqui.svg"
   inkscape:export-xdpi="96"
   inkscape:export-ydpi="96"
   xmlns:inkscape="http://www.inkscape.org/namespaces/inkscape"
   xmlns:sodipodi="http://sodipodi.sourceforge.net/DTD/sodipodi-0.dtd"
   xmlns="http://www.w3.org/2000/svg"
   xmlns:svg="http://www.w3.org/2000/svg"><sodipodi:namedview
     id="namedview1"
     pagecolor="#000000"
     bordercolor="#000000"
     borderopacity="0.24705882"
     inkscape:showpageshadow="2"
     inkscape:pageopacity="0.0"
     inkscape:pagecheckerboard="0"
     inkscape:deskcolor="#d1d1d1"
     inkscape:document-units="mm" /><defs
     id="defs1" /><g
     inkscape:label="Ebene 1"
     inkscape:groupmode="layer"
     id="layer1"
     transform="translate(-67.103006,-96.731786)"><path
       style="fill:#ffffff;fill-opacity:1"
       d="m 112.15665,199.42749 c 6.10813,-1.15399 11.28243,-3.97703 16.63996,-9.07859 4.10766,-3.91141 6.70697,-7.5271 9.06808,-12.61389 3.51445,-7.57151 4.88802,-13.74067 4.89902,-22.00307 0.008,-6.10275 -0.40361,-7.98305 -2.38859,-10.90808 l -0.85481,-1.25964 -0.0999,-18.96336 -0.0999,-18.96336 c -1.33983,-7.379471 -6.7969,-8.835995 -11.90627,-8.904145 -5.22792,-0.06973 -8.57263,2.191897 -10.91992,6.933515 -0.69098,1.39581 -0.8155,2.27147 -0.90726,6.38035 -0.0585,2.61938 -0.16885,4.94593 -0.24522,5.17011 -0.10248,0.30083 -0.49167,0.28178 -1.48565,-0.0727 -4.42244,-1.57722 -9.97955,0.51364 -12.49809,4.70239 -0.4341,0.72199 -0.82402,1.36179 -0.86649,1.42178 -0.0425,0.06 -0.971318,-0.15085 -2.064118,-0.46853 -1.29091,-0.37528 -2.90533,-0.53706 -4.60878,-0.46185 l -2.62188,0.11576 -0.2241,-1.33154 c -0.34996,-2.07941 -2.15848,-5.35951 -3.7456,-6.79338 -3.04289,-2.74907 -7.1067,-3.80098 -10.93337,-2.8301 -3.96319,1.00552 -7.30114,3.97842 -8.61703,7.67466 -0.80102,2.24997 -0.74727,49.34369 0.0612,53.60545 2.66579,14.05295 12.70362,24.76305 26.55644,28.33503 4.88935,1.26073 12.171118,1.38841 17.862278,0.3132 z m -13.405548,-6.49384 c -4.07733,-0.64084 -8.80913,-2.53701 -12.52361,-5.01858 -5.39712,-3.60571 -9.52259,-9.79922 -11.3794,-17.08376 -0.78217,-3.06856 -0.79144,-3.38813 -0.79144,-27.28556 0,-22.71239 0.0386,-24.23964 0.63653,-25.15226 2.05477,-3.13647 6.68218,-3.13972 8.74811,-0.006 1.03748,1.57363 0.94379,6.30824 -0.16854,8.51674 -1.25872,2.49917 -1.63138,4.88307 -1.63138,10.43598 0,8.10702 0.87151,10.97981 4.30529,14.19171 2.57875,2.41211 5.1376,3.46183 8.48272,3.47987 1.72915,0.009 2.73391,0.15609 2.73403,0.39936 4.8e-4,0.98045 2.26053,4.74436 3.732768,6.2166 l 1.63565,1.63565 -1.53759,0.7723 c -3.079988,1.547 -7.233128,4.55564 -9.386888,6.8001 -1.88527,1.96466 -2.20486,2.48505 -2.20486,3.59011 0,1.87493 1.55035,3.35479 3.5146,3.35479 1.30081,0 1.70517,-0.23758 3.87853,-2.27879 2.88963,-2.71392 5.587298,-4.49601 8.830258,-5.8333 2.82222,-1.16379 6.79904,-2.11847 8.82469,-2.11847 1.42014,0 1.4665,0.0394 2.32148,1.97265 2.66132,6.01772 5.96894,9.40304 10.27724,10.51866 l 1.48709,0.38508 -1.89514,2.23778 c -4.00167,4.72519 -9.60705,8.41679 -14.83736,9.77164 -2.5706,0.66588 -10.14545,0.95479 -13.052778,0.49784 z m 28.086178,-20.64133 c -1.49153,-1.25505 -3.24099,-4.30613 -4.79408,-8.36096 -1.85684,-4.84789 -2.06732,-4.97402 -8.67867,-5.2008 -4.84042,-0.16604 -5.22601,-0.23195 -6.57184,-1.12325 -3.09184,-2.04764 -3.91054,-6.87947 -1.64681,-9.71925 2.07729,-2.60591 2.63487,-2.72501 13.36077,-2.85393 10.6559,-0.12808 12.38668,0.0817 14.40593,1.74614 2.66952,2.20045 3.32943,4.70318 2.72365,10.32963 -0.71956,6.68318 -2.96647,12.76503 -5.55596,15.03864 -1.45536,1.27782 -1.87324,1.29635 -3.24299,0.14378 z M 91.857832,147.33487 c -1.05904,-0.56004 -1.79451,-1.29967 -2.36785,-2.38125 -0.79901,-1.50729 -0.82745,-1.81938 -0.72416,-7.94755 0.1067,-6.33136 0.11465,-6.38802 1.07157,-7.64142 1.16934,-1.53165 3.6233,-2.57787 5.27271,-2.24799 3.29854,0.65971 3.93387,2.53538 3.75356,11.08149 -0.11713,5.55162 -0.21568,6.40364 -0.88762,7.67469 -1.25385,2.37182 -3.41926,2.88927 -6.11821,1.46203 z m 13.847348,-14.56841 c 0.17294,-7.00937 0.55526,-8.59385 2.46043,-10.19694 1.46132,-1.22962 3.71286,-1.21757 5.1929,0.0278 1.68743,1.41988 2.14953,3.58159 2.14953,10.05544 v 5.54414 l -4.32152,0.15202 c -2.37684,0.0836 -4.61754,0.28265 -4.97934,0.44231 -0.63133,0.27862 -0.65153,0.0361 -0.502,-6.02476 z m 25.85425,5.82798 c -0.38805,-0.15147 -2.54547,-0.28656 -4.79427,-0.3002 l -4.08871,-0.0248 -0.23281,-8.52379 c -0.12805,-4.68808 -0.23282,-11.46421 -0.23282,-15.05806 0,-5.87681 0.0731,-6.68533 0.72676,-8.03556 1.33531,-2.75838 4.99956,-3.73021 7.37886,-1.957 2.18221,1.62632 2.14122,1.2551 2.04041,18.47946 -0.0909,15.53367 -0.0991,15.69252 -0.79742,15.41995 z"
       id="path28"
       sodipodi:nodetypes="ssscscccsssscsssscsssssssscsssscssscsscssssssssscssccsssssssssssssssssssssscsssssscsscsss" /></g></svg>
